<?xml version="1.0" encoding="UTF-8"?>
<svg version="1.1" xmlns="http://www.w3.org/2000/svg" width="512" height="512">
<path d="M0 0 C0.84187866 -0.00960754 1.68375732 -0.01921509 2.55114746 -0.02911377 C3.45530396 -0.03336365 4.35946045 -0.03761353 5.29101562 -0.04199219 C6.70477478 -0.0505423 6.70477478 -0.0505423 8.14709473 -0.05926514 C10.14427574 -0.0687072 12.14147227 -0.07524596 14.13867188 -0.07910156 C17.15849016 -0.08874338 20.17760883 -0.11974774 23.19726562 -0.15136719 C43.0703927 -0.26299256 59.49610129 3.61935484 74.69726562 17.16113281 C75.34824219 17.71929687 75.99921875 18.27746094 76.66992188 18.85253906 C89.82597283 30.96238319 97.93663873 48.83515737 106.90136719 64.10839844 C109.12518616 67.88852791 111.3724321 71.65396048 113.63476562 75.41113281 C113.98047607 75.98565186 114.32618652 76.5601709 114.68237305 77.15209961 C115.01857666 77.7106665 115.35478027 78.2692334 115.70117188 78.84472656 C117.08721007 81.14755715 118.47040443 83.45187886 119.84960938 85.75878906 C124.39129006 93.3519898 128.98258548 100.91322185 133.60424805 108.45800781 C136.92818803 113.88903113 140.21351239 119.34198208 143.48095703 124.80712891 C146.60042915 130.01753621 149.77697514 135.19128031 152.97070312 140.35644531 C153.54046875 141.28199219 154.11023438 142.20753906 154.69726562 143.16113281 C155.58285156 144.42570312 155.58285156 144.42570312 156.48632812 145.71582031 C158.00801397 148.78864399 157.62014593 149.91093613 156.69726562 153.16113281 C155.52978516 155.24169922 155.52978516 155.24169922 154.08007812 157.26269531 C153.55542969 158.00003906 153.03078125 158.73738281 152.49023438 159.49707031 C151.93980469 160.25246094 151.389375 161.00785156 150.82226562 161.78613281 C150.27957031 162.54925781 149.736875 163.31238281 149.17773438 164.09863281 C146.84690478 167.34697724 144.59584983 170.3933763 141.69726562 173.16113281 C135.89820855 163.97501585 130.20881544 154.73156134 124.63793945 145.40527344 C120.69170886 138.80381362 116.70191278 132.22976642 112.7008667 125.66140747 C112.34905334 125.08381683 111.99723999 124.5062262 111.63476562 123.91113281 C111.28279114 123.33330048 110.93081665 122.75546814 110.56817627 122.16012573 C106.20248122 114.98823098 101.87367851 107.79589478 97.59570312 100.57128906 C97.17029739 99.85300934 96.74489166 99.13472961 96.30659485 98.39468384 C94.23914242 94.90166965 92.1756065 91.40640419 90.11694336 87.90820312 C86.52494041 81.81879871 82.87275332 75.80913962 78.89331055 69.96166992 C77.4111569 67.73042209 76.16039798 65.42301011 74.94726562 63.03613281 C66.19496416 46.72606971 57.50146734 34.20488991 39.33789062 28.01660156 C33.21562224 26.59134621 26.85219315 26.78914065 20.59887695 26.79052734 C18.39975989 26.78616257 16.20266864 26.7497856 14.00390625 26.71191406 C3.51020888 26.62798819 -6.77245069 27.70103773 -14.74023438 35.26660156 C-23.24747507 45.58163091 -24.60503146 56.31961545 -24.54324341 69.19567871 C-24.54580668 71.15378628 -24.54580668 71.15378628 -24.54842174 73.15145159 C-24.55287764 76.75912215 -24.54491588 80.36667317 -24.53486562 83.97432852 C-24.52620799 87.87061135 -24.52915291 91.76688774 -24.53067017 95.66317749 C-24.53171756 102.40856008 -24.52545622 109.1539039 -24.51419449 115.89927673 C-24.49792266 125.65188153 -24.49272976 135.40446763 -24.49021851 145.15708452 C-24.48584405 160.98103572 -24.47254169 176.80496626 -24.45361328 192.62890625 C-24.43524804 207.99804583 -24.42109469 223.36717979 -24.41259766 238.73632812 C-24.41207221 239.68409093 -24.41154676 240.63185374 -24.41100539 241.60833663 C-24.40839527 246.36310618 -24.40586786 251.11787576 -24.40338159 255.87264538 C-24.38265684 295.30215565 -24.34743808 334.73164286 -24.30273438 374.16113281 C-22.20699721 373.70354464 -20.11280112 373.23889428 -18.01928711 372.77124023 C-16.26973976 372.38424202 -16.26973976 372.38424202 -14.48484802 371.98942566 C-6.53474262 369.92004154 -0.07001837 363.938185 4.48632812 357.23535156 C9.82771601 348.08607102 10.84653782 340.030906 10.83529663 329.57141113 C10.83952855 327.97136065 10.83952855 327.97136065 10.84384596 326.33898592 C10.85217893 322.76472022 10.85352908 319.19048555 10.85498047 315.61621094 C10.85964951 313.05366428 10.86479322 310.49111844 10.87037659 307.92857361 C10.8816511 302.41038553 10.89013847 296.89220386 10.89649582 291.37400818 C10.90683539 282.6513773 10.9274014 273.92878432 10.94961548 265.20617676 C10.95709449 262.22039044 10.96450829 259.23460397 10.97190285 256.24881744 C10.97375341 255.50271476 10.97560398 254.75661208 10.97751062 253.98790023 C10.99842456 245.50088898 11.01726028 237.01387358 11.03515625 228.52685547 C11.03679443 227.75127189 11.03843261 226.9756883 11.04012044 226.17660218 C11.06642111 213.60041608 11.0850576 201.02422704 11.10174815 188.44802505 C11.11916685 175.53172983 11.14800709 162.61549224 11.18663752 149.69924307 C11.21003329 141.73434248 11.2240317 133.76953582 11.22596516 125.8046006 C11.22832318 119.70326944 11.24618566 113.60208535 11.26983452 107.50079536 C11.27704319 104.99740608 11.27912093 102.49399605 11.27573204 99.99059868 C11.27184874 96.57714641 11.28625558 93.16424477 11.30526733 89.75085449 C11.29697279 88.25990288 11.29697279 88.25990288 11.28851068 86.73883104 C11.34644397 80.72642503 11.94330591 76.1113034 16.23242188 71.51660156 C21.13097171 67.77065169 23.43293145 66.6476628 29.69726562 67.16113281 C37.09735095 69.71752592 39.84544892 75.63278273 43.53125 82.12548828 C45.67109458 85.86125548 47.91292307 89.53627227 50.13476562 93.22363281 C51.16484627 94.94360541 52.19478773 96.66366138 53.22460938 98.38378906 C57.1895393 104.99200561 61.19390317 111.57617004 65.19726562 118.16113281 C74.24419732 133.04669286 83.23106052 147.96479242 92.07226562 162.97363281 C96.68444791 170.79874124 101.35228422 178.58805229 106.07226562 186.34863281 C106.63091309 187.26813721 107.18956055 188.1876416 107.76513672 189.13500977 C112.28877685 196.55230082 116.87769359 203.93177475 121.69726562 211.16113281 C132.45515318 208.03127956 140.69118224 199.68281451 148.69726562 192.16113281 C149.35082031 191.59523437 150.004375 191.02933594 150.67773438 190.44628906 C160.80513263 181.23766508 167.67763477 168.04978669 174.71386719 156.43164062 C176.60101001 153.31985268 178.50526234 150.21940335 180.41601562 147.12207031 C184.62067149 140.29766143 188.78904712 133.4514301 192.94726562 126.59863281 C193.31609863 125.99108154 193.68493164 125.38353027 194.06494141 124.75756836 C199.09950593 116.46362634 204.1103312 108.15589036 209.09204102 99.83007812 C213.86232353 91.86637224 218.68515716 83.93470904 223.50714111 76.0022583 C227.54633531 69.3572899 231.58043102 62.7096901 235.57226562 56.03613281 C236.24128906 54.92367187 236.9103125 53.81121094 237.59960938 52.66503906 C239.19142258 50.01560395 240.76001072 47.3531453 242.32617188 44.68847656 C254.48008286 24.1756904 268.28308805 9.10758454 291.63476562 1.66894531 C297.45728666 0.23537006 303.08647031 -0.02533778 309.04882812 -0.07714844 C309.94411224 -0.08522018 310.83939636 -0.09329193 311.7618103 -0.10160828 C313.65287369 -0.11539567 315.54396141 -0.12614155 317.43505859 -0.1340332 C319.34919646 -0.14552515 321.26330298 -0.16593259 323.17724609 -0.19555664 C341.22711883 -0.47442141 356.10422311 2.28351359 369.69726562 15.16113281 C369.69726562 15.82113281 369.69726562 16.48113281 369.69726562 17.16113281 C370.35726563 17.16113281 371.01726562 17.16113281 371.69726562 17.16113281 C384.33326221 30.10161125 387.17518063 47.76303063 387.05802917 65.04975891 C387.05934051 66.50878527 387.06197294 67.96781092 387.06579667 69.42683285 C387.07244927 73.39950624 387.06058189 77.37193324 387.04546249 81.34457529 C387.03243016 85.64227321 387.03689664 89.93995876 387.03916931 94.2376709 C387.04073752 101.6716112 387.03137579 109.10547213 387.0144558 116.53939247 C386.99000878 127.2873995 386.98225471 138.03536839 386.97849182 148.7834002 C386.97193626 166.22403006 386.95199945 183.66461767 386.92358398 201.10522461 C386.8960202 218.04076934 386.87479798 234.97630258 386.86206055 251.91186523 C386.86127238 252.95688528 386.86048421 254.00190532 386.85967215 255.07859264 C386.85575686 260.32148333 386.85196578 265.5643741 386.84823644 270.80726492 C386.81716843 314.25858347 386.76435709 357.70985595 386.69726562 401.16113281 C382.34142319 401.23618709 377.9859393 401.29015389 373.62963867 401.32592773 C372.15268382 401.34086594 370.67577214 401.36122412 369.19897461 401.38745117 C350.62358055 401.708694 333.50151689 396.71325785 319.79882812 383.64257812 C306.44361048 370.0198872 300.51068208 352.9447413 300.57701111 334.00526428 C300.57572947 332.65484587 300.57572947 332.65484587 300.57442194 331.27714628 C300.57278001 328.27239017 300.5782674 325.26769038 300.58374023 322.26293945 C300.58402241 320.10429892 300.58386378 317.9456583 300.58329773 315.78701782 C300.58301094 309.93430479 300.58888859 304.08161227 300.59587169 298.22890401 C300.60212488 292.10967059 300.60271058 285.99043669 300.60389709 279.87120056 C300.6070046 268.28686624 300.61521019 256.70254137 300.62524658 245.11821121 C300.63642572 231.92845828 300.64192271 218.7387049 300.64694202 205.54894841 C300.65739327 178.41967131 300.6749815 151.29040259 300.69726562 124.16113281 C297.96185791 126.83537198 295.84093985 129.27668698 293.91992188 132.59082031 C293.41364258 133.45658691 292.90736328 134.32235352 292.38574219 135.21435547 C291.58088379 136.61113525 291.58088379 136.61113525 290.75976562 138.03613281 C289.58928623 140.04139574 288.41871076 142.04660259 287.24804688 144.05175781 C286.35786865 145.58413086 286.35786865 145.58413086 285.44970703 147.14746094 C282.79998622 151.70418338 280.12670977 156.24683921 277.44726562 160.78613281 C276.66814819 162.10677734 276.66814819 162.10677734 275.87329102 163.45410156 C271.20321518 171.34837032 266.45830256 179.19652485 261.69726562 187.03613281 C261.33387085 187.63468079 260.97047607 188.23322876 260.59606934 188.84991455 C256.67032348 195.31284798 252.72339845 201.76021071 248.69726562 208.16113281 C240.02537689 206.16536673 233.03849319 200.14810185 226.69726562 194.16113281 C231.17424967 186.21924888 235.75977808 178.37497996 240.57226562 170.62988281 C242.97201015 166.74157496 245.26951124 162.79487631 247.57226562 158.84863281 C250.71139853 153.4751654 253.92504389 148.1652095 257.25976562 142.91113281 C262.89423919 134.01569034 268.16527189 124.90424113 273.45727539 115.80273438 C277.5092674 108.84222261 281.6555304 101.9567988 285.89794922 95.11010742 C287.86242943 91.89043898 289.71509914 88.62207018 291.54907227 85.32714844 C300.14939022 70.0393198 300.14939022 70.0393198 307.94726562 67.39941406 C311.83603793 66.683407 314.92228924 66.89688119 318.50976562 68.59863281 C322.39262002 71.35869313 324.1620019 74.70382959 325.69726562 79.16113281 C326.23720023 82.78445868 326.2323241 86.34411866 326.19606018 90.00241089 C326.20413701 91.60691658 326.20413701 91.60691658 326.21237701 93.24383652 C326.22561727 96.81660163 326.21051814 100.38867594 326.19555664 103.96142578 C326.19938081 106.52763179 326.20500069 109.09383565 326.21228027 111.66003418 C326.22534718 117.18095637 326.22422316 122.70172702 326.21368599 128.22265244 C326.19871496 136.21576374 326.20868478 144.20869812 326.22520518 152.20179941 C326.25164488 165.18580725 326.26252593 178.1697753 326.26147461 191.15380859 C326.26138713 192.31839952 326.26138713 192.31839952 326.26129787 193.50651754 C326.26103204 196.65208603 326.26071476 199.79765451 326.26033461 202.94322299 C326.25936865 211.59805415 326.26069594 220.2528841 326.26342773 228.90771484 C326.26366763 229.68255187 326.26390752 230.45738889 326.26415468 231.25570582 C326.2685662 244.19014885 326.28481895 257.12455501 326.30864853 270.05897629 C326.32269388 278.02862995 326.32562191 285.99814316 326.31402563 293.96780159 C326.30581572 300.0783126 326.31257767 306.18872224 326.32471466 312.29922485 C326.32711879 314.80094577 326.3243926 317.30267779 326.3161068 319.80438614 C326.30545651 323.22506055 326.31325986 326.64522905 326.32545471 330.06588745 C326.31787866 331.05073053 326.3103026 332.03557361 326.30249697 333.05026042 C326.38947484 344.59330971 329.9557159 354.78163312 337.73632812 363.42675781 C344.53642005 369.91447802 351.52693811 372.68950722 360.69726562 374.16113281 C360.85761492 333.12382247 360.98089778 292.08655308 361.05472293 251.04899185 C361.0634775 246.20014119 361.07253779 241.35129115 361.08178711 236.50244141 C361.08454137 235.05451115 361.08454137 235.05451115 361.08735127 233.57732977 C361.11778031 217.96356364 361.17295562 202.3499786 361.2373352 186.73631977 C361.30288011 170.70590755 361.34169488 154.67558993 361.35588509 138.64504921 C361.36547257 128.7594898 361.39571303 118.87444229 361.45268089 108.98904051 C361.48978685 102.20301717 361.50084288 95.41725707 361.49177527 88.63113974 C361.48730766 84.72029005 361.49397778 80.8103325 361.53170395 76.89964294 C361.56607915 73.30985369 361.56729465 69.72154584 361.54355789 66.13168456 C361.53925649 64.23715182 361.56917283 62.34263335 361.60083479 60.44836032 C361.48263217 50.64012426 358.5799798 41.22519756 351.60875696 33.99505413 C345.03116786 28.58276038 337.53563618 26.69421531 329.20898438 26.72753906 C328.4251387 26.72229721 327.64129303 26.71705536 326.83369446 26.71165466 C325.18577246 26.70527305 323.53780467 26.70652101 321.88989258 26.71508789 C319.40100772 26.72357741 316.91443908 26.69481835 314.42578125 26.66308594 C303.31062492 26.61316986 293.76241028 27.70162303 284.44726562 34.41113281 C283.69960938 34.93191406 282.95195312 35.45269531 282.18164062 35.98925781 C274.60974917 42.60871009 269.66272497 50.7008174 264.57226562 59.28613281 C263.81966094 60.5417313 263.06639576 61.7969341 262.3125 63.05175781 C260.09564967 66.74793147 257.89374074 70.45282212 255.69726562 74.16113281 C255.11106445 75.15081055 254.52486328 76.14048828 253.92089844 77.16015625 C251.82436611 80.7057067 249.73123763 84.25322943 247.64306641 87.80371094 C241.54101351 98.1634905 235.27879516 108.42597571 229.02368164 118.69369507 C226.39113746 123.01649535 223.76874541 127.34535087 221.15039062 131.67675781 C219.6664911 134.13017077 218.18211889 136.58329696 216.69726562 139.03613281 C216.33776825 139.62999786 215.97827087 140.22386292 215.60787964 140.83572388 C211.658528 147.354249 207.67952165 153.84356858 203.50976562 160.22363281 C201.11815761 163.88379337 198.91119066 167.5377661 196.88476562 171.41113281 C189.51867091 185.18958547 180.29166377 197.7137176 169.69726562 209.16113281 C168.86582031 210.06347656 168.034375 210.96582031 167.17773438 211.89550781 C158.84163582 220.5682824 149.17598413 228.22978272 138.69726562 234.16113281 C138.03726563 234.16113281 137.37726563 234.16113281 136.69726562 234.16113281 C144.61035562 249.2931821 153.71278353 263.80803333 162.95166016 278.15722656 C163.42845215 278.90230469 163.90524414 279.64738281 164.39648438 280.41503906 C164.81760498 281.06802979 165.23872559 281.72102051 165.67260742 282.39379883 C166.69726562 284.16113281 166.69726562 284.16113281 167.69726562 287.16113281 C168.35726562 287.16113281 169.01726562 287.16113281 169.69726562 287.16113281 C169.9635376 286.44143311 170.22980957 285.7217334 170.50415039 284.98022461 C171.71245335 282.12524727 173.12887862 279.67260138 174.78710938 277.05566406 C175.40126709 276.08089111 176.0154248 275.10611816 176.64819336 274.10180664 C177.30376221 273.06950928 177.95933105 272.03721191 178.63476562 270.97363281 C180.00006963 268.8074202 181.36464705 266.64074947 182.72851562 264.47363281 C183.73978516 262.86875 183.73978516 262.86875 184.77148438 261.23144531 C187.88226634 256.27186189 190.93064634 251.27507808 193.97314453 246.2734375 C195.94929692 243.02482487 197.92896333 239.7792641 199.93945312 236.55175781 C203.60118585 230.66534974 207.04347899 224.7316089 210.31054688 218.61816406 C212.20454819 215.26231385 214.37581071 212.23364667 216.69726562 209.16113281 C219.15448516 210.34059819 221.50095494 211.62392309 223.86523438 212.98535156 C237.391255 220.73109669 249.80550716 225.83536456 265.39257812 227.51611328 C270.51169316 228.06834658 270.51169316 228.06834658 272.69726562 229.16113281 C272.74413131 236.80363991 272.77940464 244.44613165 272.80088997 252.08875084 C272.81121502 255.63962343 272.82516057 259.19039593 272.84814453 262.74121094 C273.04021732 293.25011256 273.04021732 293.25011256 270.69726562 308.16113281 C270.55111816 309.10263184 270.4049707 310.04413086 270.25439453 311.01416016 C269.87159135 313.24590716 269.43508563 315.45023596 268.94726562 317.66113281 C268.77590088 318.44262695 268.60453613 319.22412109 268.42797852 320.02929688 C261.7717815 349.16077416 248.08548995 375.34879274 227.14111328 396.68652344 C225.74162701 398.11582629 224.36548065 399.56786672 222.99023438 401.02050781 C210.60262346 413.86154519 186.70000458 436.49318325 167.93945312 437.58300781 C147.76125873 433.78641375 128.13130173 413.89207833 113.69726562 400.16113281 C112.941875 399.47019531 112.18648437 398.77925781 111.40820312 398.06738281 C89.49961211 377.35380585 74.81124315 348.4886079 68.69726562 319.16113281 C68.42527344 317.87078125 68.15328125 316.58042969 67.87304688 315.25097656 C63.80139833 294.75833051 63.41496998 274.10851499 63.57226562 253.28613281 C63.58233173 250.92936585 63.59145106 248.57259465 63.59960938 246.21582031 C63.62129788 240.53082946 63.65447848 234.84600209 63.69726562 229.16113281 C65.99245656 228.01353735 67.8076058 227.80110194 70.35351562 227.47753906 C71.29453125 227.35443359 72.23554688 227.23132813 73.20507812 227.10449219 C74.1925 226.97880859 75.17992187 226.853125 76.19726562 226.72363281 C83.43300919 225.80209943 90.56337349 224.69163787 97.69726562 223.16113281 C90.9299681 212.00787916 84.14988682 200.86402993 77.25976562 189.78613281 C71.95195908 181.24288397 66.759185 172.63436306 61.59545898 164.00341797 C56.91085007 156.17577104 52.20387467 148.36207718 47.47424316 140.56155396 C46.70897258 139.29908455 45.94423877 138.03628961 45.18005371 136.77316284 C44.11691902 135.01619135 43.05190936 133.26037129 41.98632812 131.50488281 C41.3748291 130.49619141 40.76333008 129.4875 40.13330078 128.44824219 C38.89019519 126.27978166 38.89019519 126.27978166 37.69726562 125.16113281 C37.69487727 126.27081956 37.69248892 127.38050631 37.69002819 128.52381992 C37.63114428 155.56759579 37.55520662 182.6112832 37.46155071 209.65496159 C37.41665059 222.7332637 37.37722259 235.81153894 37.35083008 248.88989258 C37.32780316 260.29351988 37.29435277 271.69706171 37.24856406 283.10062116 C37.22469517 289.13458378 37.20592492 295.16846208 37.19965172 301.20247078 C37.19357219 306.89141337 37.17346923 312.58014038 37.14299011 318.26900291 C37.13425568 320.34772363 37.13047768 322.42647257 37.13225746 324.50521088 C37.14066255 338.86243675 37.05338126 353.49246514 30.07226562 366.47363281 C29.72744141 367.1367749 29.38261719 367.79991699 29.02734375 368.4831543 C25.75414104 374.51903999 21.65970586 379.4190496 16.69726562 384.16113281 C15.77880859 385.10859375 15.77880859 385.10859375 14.84179688 386.07519531 C-0.12542534 400.56372172 -20.33121185 402.19702165 -40.05273438 402.28613281 C-41.39452759 402.29326294 -41.39452759 402.29326294 -42.76342773 402.30053711 C-43.59624268 402.29836182 -44.42905762 402.29618652 -45.28710938 402.29394531 C-46.03702148 402.29281738 -46.78693359 402.29168945 -47.55957031 402.29052734 C-49.30273437 402.16113281 -49.30273437 402.16113281 -50.30273438 401.16113281 C-50.40296805 399.33510413 -50.43197562 397.50515073 -50.43416214 395.67637444 C-50.43800328 394.478379 -50.44184443 393.28038357 -50.44580197 392.04608524 C-50.44502158 390.69949581 -50.44414276 389.35290644 -50.44317627 388.00631714 C-50.44575774 386.58896272 -50.44877028 385.17160903 -50.45217967 383.75425637 C-50.46027975 379.84052676 -50.46204092 375.92681545 -50.46277714 372.01307845 C-50.46462269 367.79872247 -50.47216788 363.5843761 -50.47891235 359.37002563 C-50.49252148 350.14210057 -50.4985255 340.91417983 -50.50292301 331.6862464 C-50.50568328 325.92261634 -50.50992045 320.15898796 -50.51442719 314.39535904 C-50.52662737 298.43617038 -50.53692249 282.47698307 -50.54030228 266.51778984 C-50.54052184 265.4953049 -50.54074141 264.47281996 -50.54096763 263.41935063 C-50.54118591 262.39439862 -50.54140418 261.3694466 -50.54162908 260.31343544 C-50.54207254 258.23646347 -50.54251911 256.1594915 -50.54296875 254.08251953 C-50.54319018 253.05226698 -50.54341161 252.02201443 -50.54363975 250.9605421 C-50.54758162 234.29354715 -50.56501359 217.62659609 -50.58832827 200.95961808 C-50.61207479 183.84547444 -50.62450577 166.73135276 -50.62567019 149.61719239 C-50.62658555 140.00953989 -50.63230179 130.40194445 -50.65048981 120.79430771 C-50.66593594 112.6059817 -50.67098505 104.41773033 -50.6627517 96.22939251 C-50.65885999 92.05542182 -50.65970165 87.88160121 -50.67380905 83.70764923 C-50.68663863 79.87644163 -50.68527203 76.04549548 -50.67321834 72.21428777 C-50.67036622 70.19237727 -50.6821286 68.17046186 -50.6946404 66.14858806 C-50.60259438 48.90521194 -46.90567487 33.95660703 -36.30273438 20.16113281 C-35.82964844 19.52175781 -35.3565625 18.88238281 -34.86914062 18.22363281 C-26.94499363 8.16692501 -12.98488013 0.12036845 0 0 Z M101.19726562 249.03613281 C97.0497117 250.22701463 92.93798191 251.34666048 88.69726562 252.16113281 C87.82589258 293.91554171 92.60023489 337.77818535 121.69726562 370.16113281 C122.1386084 370.66128906 122.57995117 371.16144531 123.03466797 371.67675781 C128.55988438 377.93595846 134.18917846 383.90546105 140.69726562 389.16113281 C141.1906543 389.56686523 141.68404297 389.97259766 142.19238281 390.390625 C148.47786043 395.54746399 154.88741029 400.52397199 161.69726562 404.97363281 C162.70789063 405.64007813 163.71851563 406.30652344 164.75976562 406.99316406 C167.64950153 408.44304775 167.64950153 408.44304775 170.68554688 407.61425781 C187.72905817 399.3909294 205.00614201 383.98647254 216.69726562 369.16113281 C217.30586426 368.39639648 217.30586426 368.39639648 217.92675781 367.61621094 C237.14111471 343.24205914 247.99959492 312.08941409 247.79492188 280.96972656 C247.79350693 280.13901138 247.79209198 279.3082962 247.79063416 278.45240784 C247.78509733 275.83444406 247.77255724 273.21657015 247.75976562 270.59863281 C247.75474244 268.80892052 247.75018098 267.01920686 247.74609375 265.22949219 C247.7351487 260.87333849 247.71792881 256.51725081 247.69726562 252.16113281 C244.63749462 251.31755318 241.57406103 250.48811261 238.50976562 249.66113281 C237.21329102 249.30341797 237.21329102 249.30341797 235.890625 248.93847656 C235.04951172 248.71289062 234.20839844 248.48730469 233.34179688 248.25488281 C232.57198486 248.04541016 231.80217285 247.8359375 231.0090332 247.62011719 C228.42909128 247.10788878 226.3167017 246.84425467 223.69726562 247.16113281 C222.15450112 248.58414825 222.15450112 248.58414825 221.11132812 250.65722656 C220.4398877 251.81677856 220.4398877 251.81677856 219.75488281 252.99975586 C219.28211914 253.85738525 218.80935547 254.71501465 218.32226562 255.59863281 C217.25786108 257.44799399 216.19272342 259.29693337 215.12695312 261.14550781 C214.5684668 262.12841797 214.00998047 263.11132812 213.43457031 264.12402344 C210.50800434 269.24016743 207.47951468 274.29461938 204.44726562 279.34863281 C203.51769043 280.8986499 203.51769043 280.8986499 202.56933594 282.47998047 C197.82076267 290.36474737 192.98866381 298.19273568 188.07226562 305.97363281 C187.40936523 307.03541748 186.74646484 308.09720215 186.06347656 309.19116211 C185.12036621 310.67096558 185.12036621 310.67096558 184.15820312 312.18066406 C183.6095459 313.04796143 183.06088867 313.91525879 182.49560547 314.80883789 C179.40255979 318.85465585 175.66391544 321.89059449 170.69726562 323.16113281 C164.42888719 323.26389311 161.11391416 321.73684733 156.61132812 317.39941406 C153.83675939 314.15486736 151.85122316 310.65888259 149.80273438 306.92285156 C147.16331967 302.11776325 144.22521323 297.49733358 141.32226562 292.84863281 C137.54243518 286.77348454 133.79165702 280.68605101 130.13476562 274.53613281 C129.06456394 272.75287989 127.99175753 270.9712304 126.91748047 269.19042969 C126.01781349 267.69422482 125.12302774 266.19508226 124.23095703 264.69433594 C122.6522566 262.0483382 121.05175148 259.41655805 119.44726562 256.78613281 C118.95154053 255.94614746 118.45581543 255.10616211 117.94506836 254.24072266 C117.46626221 253.46422363 116.98745605 252.68772461 116.49414062 251.88769531 C116.07487305 251.19240723 115.65560547 250.49711914 115.22363281 249.78076172 C111.27314937 245.58890197 106.06344248 247.58109775 101.19726562 249.03613281 Z " fill="#000000" transform="translate(87.302734375,37.8388671875)"/>
</svg>
